<?xml version="1.0" encoding="UTF-8"?>
<svg width="260px" height="40px" viewBox="0 0 260 40" version="1.1" xmlns="http://www.w3.org/2000/svg" xmlns:xlink="http://www.w3.org/1999/xlink">
    <!-- Generator: Sketch 52 (66869) - http://www.bohemiancoding.com/sketch -->
    <title>Group</title>
    <desc>Created with Sketch.</desc>
    <g id="Page-1" stroke="none" stroke-width="1" fill="none" fill-rule="evenodd">
        <g id="Artboard" transform="translate(-21.000000, -48.000000)">
            <g id="Group" transform="translate(21.000000, 48.000000)">
                <g id="Group-2" fill="#03CCFF" fill-rule="nonzero">
                    <path d="M1.2819426,-5.17920154e-17 L38.7180574,5.17920154e-17 C39.1638168,-3.00926524e-17 39.3254599,0.0464128056 39.4884229,0.133566352 C39.6513858,0.220719898 39.7792801,0.348614185 39.8664336,0.511577148 C39.9535872,0.674540111 40,0.83618323 40,1.2819426 L40,38.7180574 C40,39.1638168 39.9535872,39.3254599 39.8664336,39.4884229 C39.7792801,39.6513858 39.6513858,39.7792801 39.4884229,39.8664336 C39.3254599,39.9535872 39.1638168,40 38.7180574,40 L1.2819426,40 C0.83618323,40 0.674540111,39.9535872 0.511577148,39.8664336 C0.348614185,39.7792801 0.220719898,39.6513858 0.133566352,39.4884229 C0.0464128056,39.3254599 2.00617683e-17,39.1638168 -3.45280103e-17,38.7180574 L3.45280103e-17,1.2819426 C-2.00617683e-17,0.83618323 0.0464128056,0.674540111 0.133566352,0.511577148 C0.220719898,0.348614185 0.348614185,0.220719898 0.511577148,0.133566352 C0.674540111,0.0464128056 0.83618323,3.00926524e-17 1.2819426,-5.17920154e-17 Z" id="Rectangle"></path>
                </g>
                <path d="M51.2700195,32.0136719 L51.2700195,7.18457031 L57.949707,7.18457031 L57.949707,8.16601562 L54.9760742,8.76660156 L54.9760742,30.4316406 L57.949707,31.0322266 L57.949707,32.0136719 L51.2700195,32.0136719 Z M70.2104492,20.7197266 C70.2104492,18.9130769 69.9882835,17.5898479 69.5439453,16.75 C69.0996072,15.9101521 68.369634,15.4902344 67.3540039,15.4902344 C66.9829083,15.4902344 66.5776389,15.5317379 66.1381836,15.6147461 C65.6987283,15.6977543 65.3374038,15.8222648 65.0541992,15.9882812 L65.0541992,26.5205078 C65.6792023,26.6767586 66.4457962,26.7548828 67.3540039,26.7548828 C68.3208056,26.7548828 69.0385719,26.2836961 69.5073242,25.3413086 C69.9760766,24.3989211 70.2104492,22.8584091 70.2104492,20.7197266 Z M60.8208008,8.47363281 L59.4145508,8.13671875 L59.4145508,7.18457031 L65.0541992,7.18457031 L65.0541992,12.2382812 C65.0541992,13.1464889 65.0053716,14.0693312 64.9077148,15.0068359 C65.2983418,14.6845687 65.862301,14.4135753 66.5996094,14.1938477 C67.3369177,13.97412 68.0571254,13.8642578 68.7602539,13.8642578 C70.7524514,13.8642578 72.2075149,14.4111273 73.1254883,15.5048828 C74.0434616,16.5986383 74.5024414,18.3417849 74.5024414,20.734375 C74.5024414,23.0976681 73.9140684,24.9482355 72.7373047,26.2861328 C71.560541,27.6240301 69.9028427,28.2929688 67.7641602,28.2929688 C66.182121,28.2929688 63.867691,27.9609408 60.8208008,27.296875 L60.8208008,8.47363281 Z M83.7163086,13.9228516 C87.1635915,13.9228516 88.887207,15.1923701 88.887207,17.7314453 L88.887207,26.6816406 L90.2641602,27.0332031 L90.2641602,28 L85.1958008,28 L84.8735352,26.9453125 C84.1118126,27.4628932 83.4233429,27.8168936 82.8081055,28.0073242 C82.192868,28.1977549 81.572757,28.2929688 80.9477539,28.2929688 C78.1059428,28.2929688 76.6850586,26.9257949 76.6850586,24.1914062 C76.6850586,23.1562448 76.8950174,22.3286164 77.3149414,21.7084961 C77.7348654,21.0883758 78.3403281,20.629396 79.1313477,20.331543 C79.9223672,20.0336899 81.167472,19.8652346 82.8666992,19.8261719 L84.6538086,19.7822266 L84.6538086,17.7753906 C84.6538086,16.1152261 83.9751044,15.2851562 82.6176758,15.2851562 C81.7973592,15.2851562 80.8793996,15.53906 79.8637695,16.046875 L79.3071289,17.7607422 L78.340332,17.7607422 L78.340332,14.4355469 C79.8149488,14.2109364 80.8989223,14.0693362 81.5922852,14.0107422 C82.285648,13.9521481 82.9936487,13.9228516 83.7163086,13.9228516 Z M84.6538086,21.0859375 L83.4233398,21.1298828 C82.4760695,21.1689455 81.8193378,21.4179665 81.453125,21.8769531 C81.0869122,22.3359398 80.9038086,23.0781199 80.9038086,24.1035156 C80.9038086,24.9335979 81.0502915,25.5439434 81.3432617,25.9345703 C81.6362319,26.3251973 82.0170875,26.5205078 82.4858398,26.5205078 C83.1499057,26.5205078 83.8725547,26.3496111 84.6538086,26.0078125 L84.6538086,21.0859375 Z M97.0756836,15.4316406 L98.0717773,14.9189453 C99.4389717,14.2158168 100.669428,13.8642578 101.763184,13.8642578 C104.302259,13.8642578 105.571777,15.2167833 105.571777,17.921875 L105.571777,26.6816406 L106.94873,27.0332031 L106.94873,28 L100.10791,28 L100.10791,27.0332031 L101.338379,26.6816406 L101.338379,18.4931641 C101.338379,17.6728475 101.165041,17.0332054 100.818359,16.5742188 C100.471678,16.1152321 99.9760774,15.8857422 99.331543,15.8857422 C98.5893518,15.8857422 97.8471717,16.0517562 97.1049805,16.3837891 L97.1049805,26.6816406 L98.3647461,27.0332031 L98.3647461,28 L91.5239258,28 L91.5239258,27.0332031 L92.871582,26.6816406 L92.871582,15.5488281 L91.5239258,15.1972656 L91.5239258,14.2304688 L96.8706055,14.2304688 L97.0756836,15.4316406 Z M113.789551,21.3935547 L119.165527,15.5341797 L117.700684,15.1972656 L117.700684,14.2304688 L122.944824,14.2304688 L122.944824,15.1972656 L121.362793,15.5195312 L118.081543,18.9765625 L122.812988,26.6816406 L124.043457,27.0332031 L124.043457,28 L117.422363,28 L117.422363,27.0332031 L118.228027,26.6816406 L115.474121,21.8623047 L113.789551,23.0341797 L113.789551,26.6816406 L115.151855,27.0332031 L115.151855,28 L108.252441,28 L108.252441,27.0332031 L109.556152,26.6816406 L109.556152,8.50292969 L108.149902,8.15136719 L108.149902,7.18457031 L113.789551,7.18457031 L113.789551,21.3935547 Z M144.44873,13.2050781 C144.44873,12.0624943 144.202151,11.2373072 143.708984,10.7294922 C143.215818,10.2216771 142.402838,9.96777344 141.27002,9.96777344 L139.233887,9.96777344 L139.233887,16.8085938 L141.387207,16.8085938 C142.432134,16.8085938 143.203611,16.535159 143.70166,15.9882812 C144.19971,15.4414035 144.44873,14.5136784 144.44873,13.2050781 Z M145.928223,22.2724609 C145.928223,20.9736263 145.603519,20.0068391 144.954102,19.3720703 C144.304684,18.7373015 143.242683,18.4199219 141.768066,18.4199219 L139.233887,18.4199219 L139.233887,26.3886719 C140.640144,26.4472659 141.748531,26.4765625 142.559082,26.4765625 C143.701666,26.4765625 144.548825,26.1298863 145.100586,25.4365234 C145.652347,24.7431606 145.928223,23.6884836 145.928223,22.2724609 Z M132.085449,28 L132.085449,26.9306641 L134.619629,26.5351562 L134.619629,9.80664062 L132.085449,9.42578125 L132.085449,8.35644531 L141.621582,8.35644531 C144.229017,8.35644531 146.152826,8.70556292 147.393066,9.40380859 C148.633307,10.1020543 149.253418,11.2324141 149.253418,12.7949219 C149.253418,13.9668027 148.887211,14.9775348 148.154785,15.8271484 C147.42236,16.6767621 146.440924,17.2333971 145.210449,17.4970703 C147.03663,17.6826181 148.418452,18.1782186 149.355957,18.9838867 C150.293462,19.7895548 150.762207,20.8857353 150.762207,22.2724609 C150.762207,24.1767673 150.059089,25.6220654 148.652832,26.6083984 C147.246575,27.5947315 145.229994,28.0878906 142.603027,28.0878906 L135.92334,28 L132.085449,28 Z M159.595215,13.9228516 C163.042498,13.9228516 164.766113,15.1923701 164.766113,17.7314453 L164.766113,26.6816406 L166.143066,27.0332031 L166.143066,28 L161.074707,28 L160.752441,26.9453125 C159.990719,27.4628932 159.302249,27.8168936 158.687012,28.0073242 C158.071774,28.1977549 157.451663,28.2929688 156.82666,28.2929688 C153.984849,28.2929688 152.563965,26.9257949 152.563965,24.1914062 C152.563965,23.1562448 152.773924,22.3286164 153.193848,21.7084961 C153.613772,21.0883758 154.219234,20.629396 155.010254,20.331543 C155.801273,20.0336899 157.046378,19.8652346 158.745605,19.8261719 L160.532715,19.7822266 L160.532715,17.7753906 C160.532715,16.1152261 159.854011,15.2851562 158.496582,15.2851562 C157.676265,15.2851562 156.758306,15.53906 155.742676,16.046875 L155.186035,17.7607422 L154.219238,17.7607422 L154.219238,14.4355469 C155.693855,14.2109364 156.777829,14.0693362 157.471191,14.0107422 C158.164554,13.9521481 158.872555,13.9228516 159.595215,13.9228516 Z M160.532715,21.0859375 L159.302246,21.1298828 C158.354976,21.1689455 157.698244,21.4179665 157.332031,21.8769531 C156.965818,22.3359398 156.782715,23.0781199 156.782715,24.1035156 C156.782715,24.9335979 156.929198,25.5439434 157.222168,25.9345703 C157.515138,26.3251973 157.895994,26.5205078 158.364746,26.5205078 C159.028812,26.5205078 159.751461,26.3496111 160.532715,26.0078125 L160.532715,21.0859375 Z M172.95459,15.4316406 L173.950684,14.9189453 C175.317878,14.2158168 176.548334,13.8642578 177.64209,13.8642578 C180.181165,13.8642578 181.450684,15.2167833 181.450684,17.921875 L181.450684,26.6816406 L182.827637,27.0332031 L182.827637,28 L175.986816,28 L175.986816,27.0332031 L177.217285,26.6816406 L177.217285,18.4931641 C177.217285,17.6728475 177.043947,17.0332054 176.697266,16.5742188 C176.350584,16.1152321 175.854984,15.8857422 175.210449,15.8857422 C174.468258,15.8857422 173.726078,16.0517562 172.983887,16.3837891 L172.983887,26.6816406 L174.243652,27.0332031 L174.243652,28 L167.402832,28 L167.402832,27.0332031 L168.750488,26.6816406 L168.750488,15.5488281 L167.402832,15.1972656 L167.402832,14.2304688 L172.749512,14.2304688 L172.95459,15.4316406 Z M189.668457,21.3935547 L195.044434,15.5341797 L193.57959,15.1972656 L193.57959,14.2304688 L198.82373,14.2304688 L198.82373,15.1972656 L197.241699,15.5195312 L193.960449,18.9765625 L198.691895,26.6816406 L199.922363,27.0332031 L199.922363,28 L193.30127,28 L193.30127,27.0332031 L194.106934,26.6816406 L191.353027,21.8623047 L189.668457,23.0341797 L189.668457,26.6816406 L191.030762,27.0332031 L191.030762,28 L184.131348,28 L184.131348,27.0332031 L185.435059,26.6816406 L185.435059,8.50292969 L184.028809,8.15136719 L184.028809,7.18457031 L189.668457,7.18457031 L189.668457,21.3935547 Z M201.050293,32.0136719 L201.050293,31.0322266 L204.023926,30.4316406 L204.023926,8.76660156 L201.050293,8.16601562 L201.050293,7.18457031 L207.72998,7.18457031 L207.72998,32.0136719 L201.050293,32.0136719 Z" id="[bank-Bank]" fill="#000000"></path>
                <path d="M220.5,0 L220.5,40" id="Path" stroke="#000000" fill-rule="nonzero"></path>
                <path d="M231.7545,18.099 C232.595171,18.099 233.234331,18.2874981 233.672,18.6645 C234.109669,19.0415019 234.3285,19.5853298 234.3285,20.296 C234.3285,21.162671 234.02517,21.8299977 233.4185,22.298 C232.81183,22.7660023 231.953839,23 230.8445,23 L228.6345,23 L228.6995,20.504 L228.6345,14.654 L233.9385,14.654 L234.0165,14.771 L233.9255,15.759 L231.8715,15.72 L229.9735,15.72 L229.9475,18.099 L231.7545,18.099 Z M231.3125,22.064 C231.841169,22.003333 232.244165,21.8365014 232.5215,21.5635 C232.798835,21.2904986 232.9375,20.9243356 232.9375,20.465 C232.9375,20.0056644 232.801001,19.6546679 232.528,19.412 C232.254999,19.1693321 231.858503,19.048 231.3385,19.048 L229.9345,19.061 L229.9215,20.387 L229.9475,22.012 L231.3125,22.064 Z M242.4015,23 L241.0235,23 L240.8285,22.064 L240.4645,20.907 L238.6965,20.868 L237.0975,20.907 L236.7075,21.999 L236.4995,23 L235.1605,23 L238.1375,14.654 L239.7105,14.654 L242.4015,23 Z M240.1265,19.815 L238.9305,15.967 L238.8395,15.967 L237.4745,19.815 L238.7875,19.841 L240.1265,19.815 Z M250.5785,20.374 L250.6175,23 L249.2785,23 L249.3435,20.491 L249.3305,19.36 L247.1985,19.347 L245.2485,19.36 L245.2355,20.374 L245.2875,23 L243.9615,23 L244.0135,20.491 L243.9615,14.654 L245.3005,14.654 L245.2615,18.242 L247.3025,18.268 L249.3175,18.242 L249.2785,14.654 L250.6435,14.654 L250.5785,20.374 Z M254.4655,20.374 L254.5175,23 L253.1785,23 L253.2435,20.491 L253.1785,14.654 L254.5305,14.654 L254.4655,20.374 Z M255.9605,18.58 C256.965838,19.9320068 258.11416,21.309993 259.4055,22.714 L259.3925,22.87 C259.011165,22.9740005 258.582169,23.056333 258.1055,23.117 L257.9365,23.039 C256.61916,21.4269919 255.501171,19.9623399 254.5825,18.645 L254.5825,18.554 L257.1825,15.408 L257.7025,14.654 L259.1715,14.654 L255.9605,18.58 Z" id="БАНК" fill="#000000"></path>
                <path d="M17,7.30310881 L17,10.1994819 L13.6428571,10.7046632 L13.6428571,29.2953368 L17,29.8005181 L17,32.6968912 L16.75,33 L8,32.6632124 L8.39285714,20 L8,7.33678756 L16.75,7 L17,7.30310881 Z M23,32.6968912 L23,29.8005181 L26.3571429,29.2953368 L26.3571429,10.7046632 L23,10.1994819 L23,7.30310881 L23.25,7 L32,7.33678756 L31.6071429,20 L32,32.6632124 L23.25,33 L23,32.6968912 Z" id="[-]" fill="#FFFFFF"></path>
            </g>
        </g>
    </g>
</svg>