<?xml version="1.0" encoding="UTF-8"?>
<svg width="311px" height="394px" viewBox="0 0 311 394" version="1.1" xmlns="http://www.w3.org/2000/svg" xmlns:xlink="http://www.w3.org/1999/xlink">
    <!-- Generator: Sketch 52 (66869) - http://www.bohemiancoding.com/sketch -->
    <title>Group 4</title>
    <desc>Created with Sketch.</desc>
    <defs>
        <radialGradient cx="7.51910489%" cy="4.15071791%" fx="7.51910489%" fy="4.15071791%" r="153.617975%" gradientTransform="translate(0.075191,0.041507),scale(0.718631,1.000000),rotate(153.030197),translate(-0.075191,-0.041507)" id="radialGradient-1">
            <stop stop-color="#FFFFFF" offset="0%"></stop>
            <stop stop-color="#E6E6E6" offset="100%"></stop>
        </radialGradient>
        <path d="M37.1763354,-1.50196845e-15 L225.823665,-5.76007621e-15 C238.750686,3.34677015e-15 243.438337,1.34597136 248.164263,3.8734242 C252.890189,6.40087705 256.599123,10.1098114 259.126576,14.8357373 C261.654029,19.5616632 263,24.2493137 263,37.1763354 L263,151.823665 C263,164.750686 261.654029,169.438337 259.126576,174.164263 C256.599123,178.890189 252.890189,182.599123 248.164263,185.126576 C243.438337,187.654029 238.750686,189 225.823665,189 L37.1763354,189 C24.2493137,189 19.5616632,187.654029 14.8357373,185.126576 C10.1098114,182.599123 6.40087705,178.890189 3.8734242,174.164263 C1.34597136,169.438337 4.80124836e-15,164.750686 -8.26335695e-15,151.823665 L1.0013123e-15,37.1763354 C-5.81791281e-16,24.2493137 1.34597136,19.5616632 3.8734242,14.8357373 C6.40087705,10.1098114 10.1098114,6.40087705 14.8357373,3.8734242 C19.5616632,1.34597136 24.2493137,8.72686921e-16 37.1763354,-1.50196845e-15 Z" id="path-2"></path>
        <filter x="-17.9%" y="-13.2%" width="135.7%" height="149.7%" filterUnits="objectBoundingBox" id="filter-3">
            <feMorphology radius="10" operator="erode" in="SourceAlpha" result="shadowSpreadOuter1"></feMorphology>
            <feOffset dx="0" dy="22" in="shadowSpreadOuter1" result="shadowOffsetOuter1"></feOffset>
            <feGaussianBlur stdDeviation="22" in="shadowOffsetOuter1" result="shadowBlurOuter1"></feGaussianBlur>
            <feColorMatrix values="0 0 0 0 0.264562075   0 0 0 0 0.264562075   0 0 0 0 0.264562075  0 0 0 0.5 0" type="matrix" in="shadowBlurOuter1"></feColorMatrix>
        </filter>
        <radialGradient cx="7.51910489%" cy="4.15071791%" fx="7.51910489%" fy="4.15071791%" r="139.606031%" gradientTransform="translate(0.075191,0.041507),scale(0.703422,1.000000),rotate(44.810171),translate(-0.075191,-0.041507)" id="radialGradient-4">
            <stop stop-color="#03CCFF" offset="0%"></stop>
            <stop stop-color="#E59A1E" offset="98.0739704%"></stop>
        </radialGradient>
        <path d="M37.1763354,-8.6073958e-15 L225.823665,-2.05074523e-15 C238.750686,-4.4254006e-15 243.438337,1.34597136 248.164263,3.8734242 C252.890189,6.40087705 256.599123,10.1098114 259.126576,14.8357373 C261.654029,19.5616632 263,24.2493137 263,37.1763354 L263,147.823665 C263,160.750686 261.654029,165.438337 259.126576,170.164263 C256.599123,174.890189 252.890189,178.599123 248.164263,181.126576 C243.438337,183.654029 238.750686,185 225.823665,185 L37.1763354,185 C24.2493137,185 19.5616632,183.654029 14.8357373,181.126576 C10.1098114,178.599123 6.40087705,174.890189 3.8734242,170.164263 C1.34597136,165.438337 -2.9709224e-15,160.750686 -4.55402598e-15,147.823665 L-2.55140138e-15,37.1763354 C-4.13450496e-15,24.2493137 1.34597136,19.5616632 3.8734242,14.8357373 C6.40087705,10.1098114 10.1098114,6.40087705 14.8357373,3.8734242 C19.5616632,1.34597136 24.2493137,-6.23274044e-15 37.1763354,-8.6073958e-15 Z" id="path-5"></path>
        <filter x="-6.5%" y="-7.0%" width="112.9%" height="128.1%" filterUnits="objectBoundingBox" id="filter-6">
            <feMorphology radius="10" operator="erode" in="SourceAlpha" result="shadowSpreadOuter1"></feMorphology>
            <feOffset dx="0" dy="22" in="shadowSpreadOuter1" result="shadowOffsetOuter1"></feOffset>
            <feGaussianBlur stdDeviation="12" in="shadowOffsetOuter1" result="shadowBlurOuter1"></feGaussianBlur>
            <feColorMatrix values="0 0 0 0 0.422659033   0 0 0 0 0.453450782   0 0 0 0 0.453815901  0 0 0 1 0" type="matrix" in="shadowBlurOuter1"></feColorMatrix>
        </filter>
    </defs>
    <g id="Page-1" stroke="none" stroke-width="1" fill="none" fill-rule="evenodd">
        <g id="Artboard" transform="translate(-428.000000, -676.000000)">
            <g id="Group-5" transform="translate(82.000000, 676.000000)">
                <g id="Group-4" transform="translate(370.000000, 0.000000)">
                    <g id="Group-3" transform="translate(0.000000, 159.000000)">
                        <g id="Rectangle-Copy" fill-rule="nonzero">
                            <use fill="black" fill-opacity="1" filter="url(#filter-3)" xlink:href="#path-2"></use>
                            <use fill="url(#radialGradient-1)" xlink:href="#path-2"></use>
                        </g>
                        <path d="M32.8723254,49.1683944 C35.4090251,49.1683944 37.3376725,49.7345014 38.6583254,50.8667324 C39.9789784,51.9989634 40.6392949,53.6322147 40.6392949,55.7665352 C40.6392949,58.3693651 39.7240046,60.3735141 37.8933966,61.7790423 C36.0627886,63.1845704 33.4738246,63.8873239 30.1264271,63.8873239 L23.4578169,63.8873239 L23.6539525,56.3912113 L23.4578169,38.8221972 L39.4624814,38.8221972 L39.6978441,39.1735775 L39.4232542,42.1407887 L33.2253695,42.023662 L27.4982102,42.023662 L27.4197559,49.1683944 L32.8723254,49.1683944 Z M31.5386034,61.0762817 C33.1338475,60.8940836 34.349876,60.3930464 35.1867254,59.5731549 C36.0235748,58.7532635 36.4419932,57.6535844 36.4419932,56.2740845 C36.4419932,54.8945847 36.0301126,53.8404543 35.206339,53.111662 C34.3825654,52.3828696 33.1861502,52.0184789 31.6170576,52.0184789 L27.3805288,52.0575211 L27.3413017,56.039831 L27.4197559,60.9201127 L31.5386034,61.0762817 Z M51.7013424,45.5374648 C53.5057989,45.5374648 54.9310366,45.9669253 55.9770983,46.8258592 C57.02316,47.684793 57.5461831,48.8820768 57.5461831,50.4177465 C57.5461831,50.8862559 57.4677296,52.4479304 57.3108203,55.1028169 C57.1539111,57.7056468 57.0754576,59.2282795 57.0754576,59.6707606 C57.0754576,60.1652982 57.1604489,60.510168 57.3304339,60.7053803 C57.5004189,60.9005925 57.7946194,60.9981972 58.2130441,60.9981972 C58.4745595,60.9981972 58.8668268,60.9461414 59.3898576,60.8420282 L59.7429017,61.1153239 L59.3506305,63.3016901 C58.5922358,63.7701995 57.7684745,64.0565065 56.879322,64.1606197 C56.0686242,64.0825348 55.4148454,63.7897208 54.9179661,63.282169 C54.4210868,62.7746172 54.1203485,62.1043985 54.0157424,61.271493 L53.7411525,61.271493 C52.4074238,62.6770211 51.047564,63.6530677 49.6615322,64.199662 C47.8570757,64.1736337 46.4383758,63.7051313 45.4053898,62.7941408 C44.3724039,61.8831504 43.8559186,60.6468247 43.8559186,59.0851268 C43.8559186,56.7686081 45.1242495,55.3240592 47.6609492,54.7514366 L53.8588339,53.3849577 L53.898061,51.2766761 C53.898061,50.313629 53.6561629,49.5848475 53.1723593,49.0903099 C52.6885558,48.5957722 51.9890125,48.348507 51.0737085,48.348507 C50.184556,48.348507 49.2954169,48.5502233 48.4062644,48.953662 C47.5171119,49.3571006 46.5364438,49.9882774 45.4642305,50.8472113 L45.1504136,50.652 L44.640461,47.88 C46.9417968,46.3183021 49.2954004,45.5374648 51.7013424,45.5374648 Z M48.7593085,56.8987606 C48.2885807,57.0028738 47.9486157,57.1785621 47.7394034,57.425831 C47.530191,57.6730998 47.4255864,58.0570115 47.4255864,58.5775775 C47.4255864,59.3584264 47.6413334,59.9700823 48.0728339,60.4125634 C48.5043344,60.8550445 49.0861975,61.0762817 49.8184407,61.0762817 C51.0475632,61.0762817 52.3551208,60.2824305 53.7411525,58.6947042 L53.8588339,55.6884507 L48.7593085,56.8987606 Z M71.3933559,54.5562254 C73.851601,55.1809045 75.0807051,56.5864116 75.0807051,58.7727887 C75.0807051,60.4646282 74.4138507,61.7855445 73.080122,62.7355775 C71.7463933,63.6856104 69.9027372,64.1606197 67.5490983,64.1606197 C66.5291881,64.1606197 65.54852,64.0565081 64.6070644,63.8482817 C63.6656089,63.6400553 62.8679987,63.3537483 62.2142102,62.9893521 L62.8810712,60.0221408 L63.155661,59.9050141 C63.730995,60.2954386 64.4109249,60.6012665 65.1954712,60.822507 C65.9800175,61.0437476 66.7514764,61.1543662 67.5098712,61.1543662 C68.6866906,61.1543662 69.6346699,60.9071011 70.3538373,60.4125634 C71.0730047,59.9180257 71.4325831,59.267328 71.4325831,58.4604507 C71.4325831,57.8617998 71.2299116,57.3542556 70.8245627,56.9378028 C70.4192138,56.52135 69.8373507,56.235043 69.0789559,56.0788732 L65.0385627,56.0788732 L64.7639729,55.8055775 L64.9993356,53.3459155 L68.8043661,53.3849577 C69.3535485,53.1507031 69.7915803,52.8058333 70.1184746,52.350338 C70.4453689,51.8948428 70.6088136,51.3807916 70.6088136,50.808169 C70.6088136,49.4286692 69.5758431,48.7389296 67.5098712,48.7389296 C66.0976879,48.7389296 64.5678455,49.1163343 62.9202983,49.8711549 L62.5280271,49.7149859 L62.8026169,46.7087324 C64.3194065,46.0319966 65.9538534,45.6936338 67.7060068,45.6936338 C69.7719787,45.6936338 71.3868123,46.0970664 72.5505559,46.9039437 C73.7142996,47.7108209 74.2961627,48.8170071 74.2961627,50.2225352 C74.2961627,51.1855823 74.041189,52.0445033 73.5312339,52.7993239 C73.0212788,53.5541446 72.3086599,54.1397726 71.3933559,54.5562254 Z M86.3388881,45.5374648 C88.8755878,45.5374648 90.8303864,46.324809 92.2033424,47.8995211 C93.5762984,49.4742332 94.2627661,51.7061264 94.2627661,54.5952676 C94.2627661,57.6926352 93.5305339,60.0741889 92.0660475,61.74 C90.601561,63.4058111 88.5225445,64.2387042 85.8289356,64.2387042 C83.2922359,64.2387042 81.3374374,63.45136 79.9644814,61.8766479 C78.5915253,60.3019358 77.9050576,58.0700426 77.9050576,55.1809014 C77.9050576,52.0835338 78.6372899,49.7019802 80.1017763,48.036169 C81.5662627,46.3703579 83.6452792,45.5374648 86.3388881,45.5374648 Z M86.1035254,48.3094648 C83.1222495,48.3094648 81.6316339,50.3136138 81.6316339,54.3219718 C81.6316339,56.768632 81.99775,58.5775716 82.7299932,59.7488451 C83.4622364,60.9201185 84.5867359,61.5057465 86.1035254,61.5057465 C87.5941634,61.5057465 88.7055873,61.0112162 89.4378305,60.0221408 C90.1700737,59.0330655 90.5361898,57.5234468 90.5361898,55.4932394 C90.5361898,53.0465793 90.1700737,51.2376397 89.4378305,50.0663662 C88.7055873,48.8950927 87.5941634,48.3094648 86.1035254,48.3094648 Z M108.894481,54.5562254 C111.457333,55.1288479 112.738739,56.534355 112.738739,58.7727887 C112.738739,60.5687414 112.02612,61.8896577 110.600861,62.7355775 C109.175602,63.5814972 107.063896,64.0044507 104.265681,64.0044507 C102.461225,64.0044507 100.552191,63.9654088 98.538522,63.8873239 L98.6954305,56.352169 L98.5777492,45.8888451 L105.599403,45.8498028 C107.639224,45.8498028 109.208293,46.2337145 110.306658,47.0015493 C111.405022,47.7693841 111.954197,48.8690633 111.954197,50.3006197 C111.954197,51.2376385 111.692685,52.0705316 111.169654,52.7993239 C110.646623,53.5281163 109.88824,54.1137443 108.894481,54.5562254 Z M108.306075,50.7691268 C108.306075,49.9362212 107.979185,49.3115514 107.325397,48.8950986 C106.671608,48.4786458 105.664789,48.2704225 104.304908,48.2704225 C103.441908,48.2704225 102.775053,48.2834365 102.304325,48.3094648 L102.186644,53.580169 L105.560176,53.6972958 C106.449329,53.5150977 107.129259,53.1767349 107.599986,52.6821972 C108.070714,52.1876595 108.306075,51.5499757 108.306075,50.7691268 Z M104.69718,61.6619155 C106.109363,61.6619155 107.194636,61.4016364 107.953031,60.8810704 C108.711425,60.3605044 109.090617,59.6056951 109.090617,58.6166197 C109.090617,57.1330067 108.070722,56.2610717 106.030902,56.0007887 L102.147417,56.039831 L102.225871,61.5447887 C103.062721,61.6228736 103.886482,61.6619155 104.69718,61.6619155 Z M136.392692,56.0007887 L136.510373,63.8873239 L132.587661,63.8873239 L132.744569,56.352169 L132.626888,46.1621408 L136.5496,45.8107606 L136.392692,56.0007887 Z M124.663783,52.8383662 C126.520543,52.8383662 127.939243,53.2548127 128.919925,54.0877183 C129.900608,54.9206239 130.390942,56.1309216 130.390942,57.7186479 C130.390942,59.6707703 129.711012,61.186896 128.351132,62.2670704 C126.991252,63.3472448 125.095294,63.8873239 122.6632,63.8873239 L117.092949,63.8873239 L117.249858,56.352169 L117.132176,45.8888451 L121.054888,45.8888451 L120.937207,52.8383662 L124.663783,52.8383662 Z M123.683105,61.427662 C124.624561,61.2714922 125.343717,60.9136084 125.840597,60.354 C126.337476,59.7943916 126.585912,59.0591031 126.585912,58.1481127 C126.585912,57.2110939 126.3244,56.4823125 125.801369,55.9617465 C125.278339,55.4411805 124.546106,55.1939154 123.604651,55.2199437 L120.89798,55.2589859 L120.89798,56.0007887 L120.976434,61.3495775 L123.683105,61.427662 Z M142.590576,56.352169 L142.433668,45.9669296 L146.317153,45.8107606 L146.238698,58.3823662 L146.474061,58.3823662 L153.731078,45.8888451 L157.65379,45.8888451 L157.496881,55.883662 L157.65379,63.8873239 L153.770305,63.8873239 L153.887986,56.6254648 L153.927214,51.1595493 L153.652624,51.1595493 L146.277925,63.8873239 L142.433668,63.8873239 L142.590576,56.352169 Z M156.006251,39.564 C155.535523,40.6832169 154.770602,41.5551518 153.711464,42.179831 C152.652327,42.8045102 151.416685,43.1168451 150.004502,43.1168451 C148.592318,43.1168451 147.382828,42.8110171 146.375993,42.1993521 C145.369159,41.5876871 144.604238,40.7092452 144.081207,39.564 L146.121017,38.1584789 L146.591742,38.1584789 C146.853258,39.043441 147.265138,39.6876318 147.827397,40.0910704 C148.389655,40.4945091 149.1415,40.6962254 150.082956,40.6962254 C151.024411,40.6962254 151.756644,40.507523 152.279675,40.1301127 C152.802705,39.7527023 153.221124,39.0954976 153.534942,38.1584789 L153.966441,38.1584789 L156.006251,39.564 Z M39.8333559,86.8761127 C44.9257746,86.8761127 48.8573624,88.5158709 51.6282373,91.7954366 C54.3991122,95.0750023 55.7845288,99.720984 55.7845288,105.733521 C55.7845288,112.093891 54.2867811,117.025588 51.2912407,120.528761 C48.2957003,124.031933 44.0520817,125.783493 38.5602576,125.783493 C33.4678389,125.783493 29.5237699,124.143735 26.7279322,120.864169 C23.9320945,117.584603 22.5341966,112.988311 22.5341966,107.075155 C22.5341966,100.665095 24.0444256,95.6961303 27.0649288,92.1681127 C30.0854321,88.640095 34.3415319,86.8761127 39.8333559,86.8761127 Z M39.0844746,96.0439437 C36.0889342,96.0439437 33.867275,96.8762452 32.4194305,98.5408732 C30.971586,100.205501 30.2476746,102.82663 30.2476746,106.404338 C30.2476746,110.031736 30.971586,112.714977 32.4194305,114.454141 C33.867275,116.193304 36.1138966,117.062873 39.1593627,117.062873 C42.1549031,117.062873 44.3890435,116.230572 45.8618508,114.565944 C47.3346582,112.901316 48.0710508,110.329877 48.0710508,106.851549 C48.0710508,103.17446 47.322177,100.453952 45.8244068,98.6899437 C44.3266366,96.9259348 42.080015,96.0439437 39.0844746,96.0439437 Z M72.8590237,111.919944 L73.0088,116.168451 L80.7971661,116.168451 L81.2464949,116.690197 L80.9469424,119.895211 L73.1585763,119.895211 L73.3083525,125.112676 L64.4715525,125.112676 L64.6213288,119.895211 L60.2029288,119.895211 L59.7536,119.522535 L60.1280407,116.168451 L64.7711051,116.168451 L64.8459932,112.739831 L64.3966644,87.4723944 L80.4976136,87.3978592 C84.4916674,87.3978592 87.5870127,88.3419624 89.7837424,90.2301972 C91.980472,92.118432 93.0788203,94.8016727 93.0788203,98.28 C93.0788203,102.304922 91.6434788,105.522326 88.7727525,107.93231 C85.9020263,110.342294 82.0453259,111.547268 77.2025356,111.547268 L72.8590237,111.547268 L72.8590237,111.919944 Z M83.9424678,99.0998873 C83.9424678,95.4724889 81.845621,93.5842824 77.6518644,93.4352113 L73.1585763,93.6588169 L73.0088,105.28631 L78.9249627,105.509915 C80.6224356,105.013012 81.8830399,104.242822 82.7068136,103.199324 C83.5305872,102.155826 83.9424678,100.789361 83.9424678,99.0998873 Z M28.5145492,146.578817 C29.1421862,146.777578 29.5915105,147.054421 29.8625356,147.409352 C30.1335607,147.764283 30.2690712,148.225687 30.2690712,148.793577 C30.2690712,149.872569 29.8233129,150.653406 28.9317831,151.136113 C28.0402532,151.618819 26.7172427,151.860169 24.9627119,151.860169 C23.9356694,151.860169 22.4664502,151.817578 20.5550102,151.732394 L20.7475797,147.686197 L20.5978034,141.680789 L26.2679051,141.680789 C27.4661212,141.680789 28.3932984,141.904392 29.0494644,142.351606 C29.7056304,142.798819 30.0337085,143.448334 30.0337085,144.300169 C30.0337085,144.797073 29.901764,145.24428 29.6378712,145.641803 C29.3739783,146.039326 28.9995414,146.351661 28.5145492,146.578817 Z M24.4705898,144.065915 L24.4064,145.684394 L25.6474034,145.748282 C25.8613706,145.663098 26.0147114,145.553071 26.1074305,145.418197 C26.2001496,145.283323 26.2465085,145.095212 26.2465085,144.853859 C26.2465085,144.54152 26.1359604,144.332113 25.914861,144.225634 C25.6937616,144.119154 25.2337391,144.065915 24.5347797,144.065915 L24.4705898,144.065915 Z M25.5832136,149.496338 C25.8542386,149.496338 26.0717687,149.425353 26.2358102,149.28338 C26.3998517,149.141408 26.4818712,148.935551 26.4818712,148.665803 C26.4818712,148.509633 26.4462105,148.37831 26.3748881,148.271831 C26.3035657,148.165352 26.1751874,148.062423 25.9897492,147.963042 L24.3636068,147.984338 L24.4277966,149.411155 C24.8414665,149.467944 25.2266016,149.496338 25.5832136,149.496338 Z M35.1047051,141.702085 L39.2770441,141.702085 L39.5765966,143.08631 L40.3468746,146.25938 L40.5394441,146.25938 L41.4381017,143.277972 L41.8232407,141.702085 L45.9313898,141.702085 L46.744461,151.732394 L43.4493831,151.732394 L43.4707797,148.687099 L43.3637966,146.791775 L43.1284339,146.791775 L41.5664814,150.859268 L38.9133017,150.859268 L37.6509017,146.791775 L37.4369356,146.791775 L37.2871593,148.346366 L37.1159864,151.732394 L34.0562712,151.732394 L35.1047051,141.702085 Z M56.8008678,147.558423 L51.4945085,147.601014 C51.6228888,148.097918 51.8653813,148.463492 52.2219932,148.697746 C52.5786052,148.932001 53.0707223,149.049127 53.6983593,149.049127 C54.3973187,149.049127 55.4172136,148.871664 56.7580746,148.516732 L57.0576271,148.72969 L56.4157288,151.540732 C55.288835,151.838875 54.2404116,151.987944 53.2704271,151.987944 C51.5016318,151.987944 50.1215643,151.519441 49.1301831,150.582423 C48.1388018,149.645404 47.6431186,148.353473 47.6431186,146.706592 C47.6431186,145.073907 48.1138394,143.789075 49.0552949,142.852056 C49.9967505,141.915038 51.2876664,141.446535 52.9280814,141.446535 C54.3402647,141.446535 55.435047,141.815658 56.212461,142.553915 C56.9898751,143.292173 57.3785763,144.321458 57.3785763,145.641803 C57.3785763,146.06772 57.3357835,146.529124 57.2501966,147.026028 L56.8008678,147.558423 Z M53.8481356,145.215887 C53.8481356,144.463433 53.5271897,144.087211 52.8852881,144.087211 C52.1007418,144.087211 51.622889,144.591206 51.4517153,145.599211 L53.8053424,145.514028 L53.8481356,145.215887 Z M63.3482305,141.425239 C64.318215,141.425239 65.1883351,141.595604 65.9586169,141.936338 L65.295322,145.088113 L64.9957695,145.237183 C64.6106286,145.081013 64.2968148,144.967437 64.0543186,144.896451 C63.8118225,144.825464 63.5835943,144.789972 63.3696271,144.789972 C62.9274283,144.789972 62.5993502,144.921294 62.3853831,145.183944 C62.1714159,145.446593 62.0644339,145.861856 62.0644339,146.429746 C62.0644339,147.23899 62.1892462,147.828167 62.4388746,148.197296 C62.6885029,148.566424 63.0843363,148.750986 63.6263864,148.750986 C64.0685853,148.750986 64.6748165,148.644508 65.4450983,148.431549 L65.7232542,148.665803 L65.295322,151.711099 C64.5535692,151.895663 63.6620527,151.987944 62.6207458,151.987944 C61.1800335,151.987944 60.0638548,151.544286 59.2721763,150.656958 C58.4804977,149.769629 58.0846644,148.509642 58.0846644,146.876958 C58.0846644,145.144893 58.5446869,143.803272 59.4647458,142.852056 C60.3848046,141.90084 61.6792866,141.425239 63.3482305,141.425239 Z M76.2931797,147.260282 L76.4643525,151.732394 L72.5273763,151.732394 L72.6771525,148.750986 L71.7143051,148.750986 C71.414751,149.546032 71.0153516,150.511431 70.5160949,151.647211 L70.1951458,151.924056 C68.5547308,151.85307 67.3066077,151.633016 66.450739,151.263887 L66.3865492,150.859268 C67.0284507,150.163602 67.7915888,149.226597 68.6759864,148.048225 C68.0911428,147.76428 67.666781,147.398706 67.4028881,146.951493 C67.1389953,146.504279 67.0070508,145.92575 67.0070508,145.215887 C67.0070508,144.548616 67.1960523,143.941693 67.574061,143.395099 C67.9520697,142.848504 68.4727153,142.422593 69.1360136,142.117352 C69.7993118,141.812111 70.5446196,141.659493 71.3719593,141.659493 L76.4857492,141.680789 L76.2931797,147.260282 Z M71.8426847,144.151099 C71.2293122,144.165296 70.9226305,144.498926 70.9226305,145.152 C70.9226305,145.506931 70.9975179,145.794421 71.1472949,146.014479 C71.2970719,146.234536 71.5431305,146.401352 71.885478,146.51493 L72.7199458,146.429746 L72.7199458,144.214986 L71.8426847,144.151099 Z M89.6446644,148.750986 L89.6446644,154.415662 L86.9700881,154.607324 L86.4993627,151.732394 L78.3900475,151.732394 L78.5826169,147.686197 L78.4328407,141.680789 L82.5837831,141.680789 L82.3912136,147.260282 L82.4554034,148.772282 L84.4024949,148.772282 L84.4452881,147.686197 L84.2955119,141.680789 L88.4464542,141.680789 L88.2538847,147.260282 L88.3180746,148.750986 L89.6446644,148.750986 Z" id="Базовый-0₽-в-месяц" fill="#333333"></path>
                    </g>
                    <g id="Group">
                        <g id="Rectangle-Copy-2" fill-rule="nonzero">
                            <use fill="black" fill-opacity="1" filter="url(#filter-6)" xlink:href="#path-5"></use>
                            <use fill="url(#radialGradient-4)" xlink:href="#path-5"></use>
                        </g>
                        <path d="M39.4232542,53.2091866 L39.5409356,61.076555 L35.5005424,61.076555 L35.696678,53.5597129 L35.5397695,39.1491866 L29.7341559,39.1491866 L29.5380203,41.1355024 C29.0672926,46.2246506 28.5246562,50.1712778 27.9100949,52.9755024 C27.2955337,55.7797269 26.5240747,57.8309345 25.5956949,59.1291866 C24.6673151,60.4274387 23.4578244,61.2323429 21.9671864,61.5439234 L20.8296,61.6218182 L20.0842847,58.3891866 C21.3395588,57.9737459 22.3267648,57.1948064 23.0459322,56.0523445 C23.7650996,54.9098826 24.3535005,53.1442863 24.8111525,50.7555024 C25.2688045,48.3667185 25.6937608,44.926402 26.0860339,40.4344498 L26.5175322,36.1502392 L26.4783051,36.0723445 L39.6193898,36.0723445 L39.4232542,53.2091866 Z M46.5233627,53.5597129 L46.3664542,43.1997129 L50.249939,43.0439234 L50.1714847,55.5849761 L50.4068475,55.5849761 L57.6638644,43.1218182 L61.5865763,43.1218182 L61.4296678,53.0923445 L61.5865763,61.076555 L57.7030915,61.076555 L57.8207729,53.8323445 L57.86,48.3797129 L57.5854102,48.3797129 L50.2107119,61.076555 L46.3664542,61.076555 L46.5233627,53.5597129 Z M79.2780068,43.3944498 L79.0426441,45.9649761 L75.5906576,45.8870813 L73.7862102,45.8870813 L73.6685288,53.2091866 L73.7862102,61.076555 L69.9027254,61.076555 L70.0204068,53.5597129 L69.9419525,45.8870813 L68.098278,45.8870813 L64.6070644,45.9649761 L64.4109288,45.6923445 L64.6070644,43.1218182 L79.0426441,43.1218182 L79.2780068,43.3944498 Z M97.3224814,53.2091866 L97.4401627,61.076555 L93.5174508,61.076555 L93.6743593,53.5597129 L89.6731932,53.5207656 L85.9073898,53.5986603 L86.0250712,61.076555 L82.1023593,61.076555 L82.2592678,53.5597129 L82.1415864,43.1218182 L86.0642983,43.1218182 L85.9466169,50.5997129 L89.8301017,50.6386603 L93.6351322,50.6386603 L93.5959051,43.1218182 L97.4793898,43.1218182 L97.3224814,53.2091866 Z M122.6632,53.2091866 L122.780881,61.076555 L118.858169,61.076555 L119.015078,53.5597129 L118.897397,43.3944498 L122.820108,43.0439234 L122.6632,53.2091866 Z M110.934292,50.0544498 C112.791051,50.0544498 114.209751,50.4698842 115.190434,51.3007656 C116.171117,52.1316469 116.661451,53.3390032 116.661451,54.9228708 C116.661451,56.870249 115.981521,58.38269 114.621641,59.4602392 C113.26176,60.5377885 111.365802,61.076555 108.933708,61.076555 L103.363458,61.076555 L103.520366,53.5597129 L103.402685,43.1218182 L107.325397,43.1218182 L107.207715,50.0544498 L110.934292,50.0544498 Z M109.953614,58.6228708 C110.895069,58.4670806 111.614226,58.1100666 112.111105,57.5518182 C112.607984,56.9935698 112.85642,56.2600683 112.85642,55.3512919 C112.85642,54.4165504 112.594909,53.6895401 112.071878,53.1702392 C111.548847,52.6509384 110.816615,52.4042742 109.875159,52.4302392 L107.168488,52.4691866 L107.168488,53.2091866 L107.246942,58.5449761 L109.953614,58.6228708 Z M128.861085,53.5597129 L128.704176,43.1997129 L132.587661,43.0439234 L132.509207,55.5849761 L132.744569,55.5849761 L140.001586,43.1218182 L143.924298,43.1218182 L143.76739,53.0923445 L143.924298,61.076555 L140.040814,61.076555 L140.158495,53.8323445 L140.197722,48.3797129 L139.923132,48.3797129 L132.548434,61.076555 L128.704176,61.076555 L128.861085,53.5597129 Z M142.276759,36.8123445 C141.806032,37.9288413 141.04111,38.7986572 139.981973,39.4218182 C138.922835,40.0449792 137.687194,40.356555 136.27501,40.356555 C134.862827,40.356555 133.653336,40.0514704 132.646502,39.4412919 C131.639667,38.8311134 130.874746,37.9548064 130.351715,36.8123445 L132.391525,35.4102392 L132.862251,35.4102392 C133.123766,36.2930507 133.535647,36.9356758 134.097905,37.338134 C134.660163,37.7405921 135.412009,37.9418182 136.353464,37.9418182 C137.29492,37.9418182 138.027152,37.7535745 138.550183,37.3770813 C139.073214,37.0005882 139.491632,36.3449808 139.805451,35.4102392 L140.236949,35.4102392 L142.276759,36.8123445 Z M37.7364881,84.1581818 C41.1813596,84.1581818 44.0021178,84.9636762 46.1988475,86.574689 C48.3955771,88.1857018 49.4939254,90.4039093 49.4939254,93.229378 C49.4939254,95.212163 48.8324202,97.4055861 47.5093898,99.8097129 C46.1863595,102.21384 44.052069,104.977305 41.1064542,108.100191 L35.4898441,114.271579 L35.6396203,114.568995 L45.7495186,114.568995 L52.4894508,113.974163 L53.0885559,114.643349 L51.8903458,122.599234 L42.8288814,122.15311 L25.8292746,122.15311 L23.0584136,122.301818 L22.5341966,121.930048 L22.5341966,115.907368 L32.6440949,106.018278 C35.0405272,103.589366 36.8128621,101.581826 37.9611525,99.9955981 C39.109443,98.4093701 39.6835797,97.0214414 39.6835797,95.8317703 C39.6835797,94.8403778 39.3091427,94.0472757 38.5602576,93.4524402 C37.8113725,92.8576047 36.7629491,92.5601914 35.4149559,92.5601914 C33.8173344,92.5601914 32.1448494,92.9567424 30.3974508,93.7498565 C28.6500523,94.5429705 27.0274922,95.6087014 25.529722,96.9470813 L24.4064,96.9470813 L22.758861,89.2886124 C27.9012054,85.8683083 32.8936978,84.1581818 37.7364881,84.1581818 Z M75.1056678,84.0094737 C80.1980865,84.0094737 84.1296743,85.6452468 86.9005492,88.9168421 C89.671424,92.1884374 91.0568407,96.8231279 91.0568407,102.821053 C91.0568407,109.165965 89.5590929,114.085676 86.5635525,117.580335 C83.5680121,121.074994 79.3243936,122.822297 73.8325695,122.822297 C68.7401508,122.822297 64.7960818,121.186524 62.0002441,117.914928 C59.2044064,114.643333 57.8065085,110.058211 57.8065085,104.159426 C57.8065085,97.7649441 59.3167374,92.8080559 62.3372407,89.2886124 C65.3577439,85.769169 69.6138437,84.0094737 75.1056678,84.0094737 Z M74.3567864,93.1550239 C71.361246,93.1550239 69.1395869,93.9853027 67.6917424,95.6458852 C66.2438978,97.3064676 65.5199864,99.9212262 65.5199864,103.490239 C65.5199864,107.108822 66.2438978,109.785542 67.6917424,111.520478 C69.1395869,113.255415 71.3862085,114.122871 74.4316746,114.122871 C77.427215,114.122871 79.6613553,113.292592 81.1341627,111.63201 C82.6069701,109.971427 83.3433627,107.406237 83.3433627,103.936364 C83.3433627,100.268211 82.5944888,97.554315 81.0967186,95.7945933 C79.5989484,94.0348716 77.3523268,93.1550239 74.3567864,93.1550239 Z M114.122386,84.0094737 C119.214805,84.0094737 123.146393,85.6452468 125.917268,88.9168421 C128.688143,92.1884374 130.073559,96.8231279 130.073559,102.821053 C130.073559,109.165965 128.575812,114.085676 125.580271,117.580335 C122.584731,121.074994 118.341112,122.822297 112.849288,122.822297 C107.756869,122.822297 103.8128,121.186524 101.016963,117.914928 C98.221125,114.643333 96.8232271,110.058211 96.8232271,104.159426 C96.8232271,97.7649441 98.3334561,92.8080559 101.353959,89.2886124 C104.374463,85.769169 108.630562,84.0094737 114.122386,84.0094737 Z M113.373505,93.1550239 C110.377965,93.1550239 108.156306,93.9853027 106.708461,95.6458852 C105.260616,97.3064676 104.536705,99.9212262 104.536705,103.490239 C104.536705,107.108822 105.260616,109.785542 106.708461,111.520478 C108.156306,113.255415 110.402927,114.122871 113.448393,114.122871 C116.443934,114.122871 118.678074,113.292592 120.150881,111.63201 C121.623689,109.971427 122.360081,107.406237 122.360081,103.936364 C122.360081,100.268211 121.611207,97.554315 120.113437,95.7945933 C118.615667,94.0348716 116.369045,93.1550239 113.373505,93.1550239 Z M153.139105,84.0094737 C158.231524,84.0094737 162.163112,85.6452468 164.933986,88.9168421 C167.704861,92.1884374 169.090278,96.8231279 169.090278,102.821053 C169.090278,109.165965 167.59253,114.085676 164.59699,117.580335 C161.601449,121.074994 157.357831,122.822297 151.866007,122.822297 C146.773588,122.822297 142.829519,121.186524 140.033681,117.914928 C137.237844,114.643333 135.839946,110.058211 135.839946,104.159426 C135.839946,97.7649441 137.350175,92.8080559 140.370678,89.2886124 C143.391181,85.769169 147.647281,84.0094737 153.139105,84.0094737 Z M152.390224,93.1550239 C149.394683,93.1550239 147.173024,93.9853027 145.72518,95.6458852 C144.277335,97.3064676 143.553424,99.9212262 143.553424,103.490239 C143.553424,107.108822 144.277335,109.785542 145.72518,111.520478 C147.173024,113.255415 149.419646,114.122871 152.465112,114.122871 C155.460652,114.122871 157.694793,113.292592 159.1676,111.63201 C160.640407,109.971427 161.3768,107.406237 161.3768,103.936364 C161.3768,100.268211 160.627926,97.554315 159.130156,95.7945933 C157.632386,94.0348716 155.385764,93.1550239 152.390224,93.1550239 Z M192.155824,84.0094737 C197.248242,84.0094737 201.17983,85.6452468 203.950705,88.9168421 C206.72158,92.1884374 208.106997,96.8231279 208.106997,102.821053 C208.106997,109.165965 206.609249,114.085676 203.613708,117.580335 C200.618168,121.074994 196.374549,122.822297 190.882725,122.822297 C185.790307,122.822297 181.846238,121.186524 179.0504,117.914928 C176.254562,114.643333 174.856664,110.058211 174.856664,104.159426 C174.856664,97.7649441 176.366893,92.8080559 179.387397,89.2886124 C182.4079,85.769169 186.664,84.0094737 192.155824,84.0094737 Z M191.406942,93.1550239 C188.411402,93.1550239 186.189743,93.9853027 184.741898,95.6458852 C183.294054,97.3064676 182.570142,99.9212262 182.570142,103.490239 C182.570142,107.108822 183.294054,109.785542 184.741898,111.520478 C186.189743,113.255415 188.436364,114.122871 191.481831,114.122871 C194.477371,114.122871 196.711511,113.292592 198.184319,111.63201 C199.657126,109.971427 200.393519,107.406237 200.393519,103.936364 C200.393519,100.268211 199.644645,97.554315 198.146875,95.7945933 C196.649104,94.0348716 194.402483,93.1550239 191.406942,93.1550239 Z M225.181492,108.99244 L225.331268,113.230622 L233.119634,113.230622 L233.568963,113.7511 L233.26941,116.948325 L225.481044,116.948325 L225.63082,122.15311 L216.79402,122.15311 L216.943797,116.948325 L212.525397,116.948325 L212.076068,116.576555 L212.450508,113.230622 L217.093573,113.230622 L217.168461,109.810335 L216.719132,84.6043062 L232.820081,84.5299522 C236.814135,84.5299522 239.909481,85.4717609 242.10621,87.3554067 C244.30294,89.2390525 245.401288,91.9157721 245.401288,95.3856459 C245.401288,99.4007856 243.965947,102.610371 241.09522,105.014498 C238.224494,107.418624 234.367794,108.62067 229.525003,108.62067 L225.181492,108.62067 L225.181492,108.99244 Z M236.264936,96.2035407 C236.264936,92.584958 234.168089,90.7013405 229.974332,90.5526316 L225.481044,90.7756938 L225.331268,102.374928 L231.247431,102.59799 C232.944903,102.102294 234.205508,101.333976 235.029281,100.293014 C235.853055,99.2520522 236.264936,97.8889079 236.264936,96.2035407 Z M28.5145492,143.567081 C29.1421862,143.76536 29.5915105,144.041529 29.8625356,144.395598 C30.1335607,144.749667 30.2690712,145.209949 30.2690712,145.776459 C30.2690712,146.852828 29.8233129,147.631768 28.9317831,148.113301 C28.0402532,148.594835 26.7172427,148.835598 24.9627119,148.835598 C23.9356694,148.835598 22.4664502,148.79311 20.5550102,148.708134 L20.7475797,144.67177 L20.5978034,138.680957 L26.2679051,138.680957 C27.4661212,138.680957 28.3932984,138.904017 29.0494644,139.350144 C29.7056304,139.79627 30.0337085,140.444206 30.0337085,141.293971 C30.0337085,141.789668 29.901764,142.235787 29.6378712,142.632344 C29.3739783,143.028902 28.9995414,143.340477 28.5145492,143.567081 Z M24.4705898,141.060287 L24.4064,142.674833 L25.6474034,142.738565 C25.8613706,142.653588 26.0147114,142.543828 26.1074305,142.409282 C26.2001496,142.274736 26.2465085,142.087083 26.2465085,141.846316 C26.2465085,141.534735 26.1359604,141.325838 25.914861,141.219617 C25.6937616,141.113397 25.2337391,141.060287 24.5347797,141.060287 L24.4705898,141.060287 Z M25.5832136,146.477512 C25.8542386,146.477512 26.0717687,146.406699 26.2358102,146.265072 C26.3998517,146.123444 26.4818712,145.918087 26.4818712,145.648995 C26.4818712,145.493205 26.4462105,145.362201 26.3748881,145.255981 C26.3035657,145.14976 26.1751874,145.047082 25.9897492,144.947943 L24.3636068,144.969187 L24.4277966,146.392536 C24.8414665,146.449187 25.2266016,146.477512 25.5832136,146.477512 Z M35.1047051,138.702201 L39.2770441,138.702201 L39.5765966,140.083062 L40.3468746,143.248421 L40.5394441,143.248421 L41.4381017,140.274258 L41.8232407,138.702201 L45.9313898,138.702201 L46.744461,148.708134 L43.4493831,148.708134 L43.4707797,145.670239 L43.3637966,143.779522 L43.1284339,143.779522 L41.5664814,147.837129 L38.9133017,147.837129 L37.6509017,143.779522 L37.4369356,143.779522 L37.2871593,145.330335 L37.1159864,148.708134 L34.0562712,148.708134 L35.1047051,138.702201 Z M56.8008678,144.544306 L51.4945085,144.586794 C51.6228888,145.082491 51.8653813,145.447176 52.2219932,145.680861 C52.5786052,145.914547 53.0707223,146.031388 53.6983593,146.031388 C54.3973187,146.031388 55.4172136,145.854356 56.7580746,145.500287 L57.0576271,145.712727 L56.4157288,148.516938 C55.288835,148.814356 54.2404116,148.963062 53.2704271,148.963062 C51.5016318,148.963062 50.1215643,148.495698 49.1301831,147.560957 C48.1388018,146.626215 47.6431186,145.337424 47.6431186,143.694545 C47.6431186,142.065829 48.1138394,140.78412 49.0552949,139.849378 C49.9967505,138.914636 51.2876664,138.447273 52.9280814,138.447273 C54.3402647,138.447273 55.435047,138.815499 56.212461,139.551962 C56.9898751,140.288425 57.3785763,141.315209 57.3785763,142.632344 C57.3785763,143.057227 57.3357835,143.517509 57.2501966,144.013206 L56.8008678,144.544306 Z M53.8481356,142.207464 C53.8481356,141.456838 53.5271897,141.081531 52.8852881,141.081531 C52.1007418,141.081531 51.622889,141.584301 51.4517153,142.589856 L53.8053424,142.50488 L53.8481356,142.207464 Z M63.3482305,138.426029 C64.318215,138.426029 65.1883351,138.595979 65.9586169,138.935885 L65.295322,142.08 L64.9957695,142.228708 C64.6106286,142.072918 64.2968148,141.959618 64.0543186,141.888804 C63.8118225,141.81799 63.5835943,141.782584 63.3696271,141.782584 C62.9274283,141.782584 62.5993502,141.913587 62.3853831,142.175598 C62.1714159,142.437609 62.0644339,142.851863 62.0644339,143.418373 C62.0644339,144.22565 62.1892462,144.813395 62.4388746,145.181627 C62.6885029,145.549858 63.0843363,145.733971 63.6263864,145.733971 C64.0685853,145.733971 64.6748165,145.627752 65.4450983,145.415311 L65.7232542,145.648995 L65.295322,148.68689 C64.5535692,148.871006 63.6620527,148.963062 62.6207458,148.963062 C61.1800335,148.963062 60.0638548,148.520483 59.2721763,147.635311 C58.4804977,146.750139 58.0846644,145.493214 58.0846644,143.864498 C58.0846644,142.136642 58.5446869,140.798282 59.4647458,139.849378 C60.3848046,138.900474 61.6792866,138.426029 63.3482305,138.426029 Z M76.2931797,144.24689 L76.4643525,148.708134 L72.5273763,148.708134 L72.6771525,145.733971 L71.7143051,145.733971 C71.414751,146.527085 71.0153516,147.490138 70.5160949,148.623158 L70.1951458,148.89933 C68.5547308,148.828516 67.3066077,148.608997 66.450739,148.240766 L66.3865492,147.837129 C67.0284507,147.143154 67.7915888,146.208427 68.6759864,145.032919 C68.0911428,144.749664 67.666781,144.384978 67.4028881,143.938852 C67.1389953,143.492725 67.0070508,142.915602 67.0070508,142.207464 C67.0070508,141.541815 67.1960523,140.936366 67.574061,140.3911 C67.9520697,139.845835 68.4727153,139.420958 69.1360136,139.116459 C69.7993118,138.81196 70.5446196,138.659713 71.3719593,138.659713 L76.4857492,138.680957 L76.2931797,144.24689 Z M71.8426847,141.145263 C71.2293122,141.159426 70.9226305,141.492246 70.9226305,142.143732 C70.9226305,142.497801 70.9975179,142.784592 71.1472949,143.004115 C71.2970719,143.223637 71.5431305,143.390047 71.885478,143.503349 L72.7199458,143.418373 L72.7199458,141.208995 L71.8426847,141.145263 Z M89.6446644,145.733971 L89.6446644,151.38488 L86.9700881,151.576077 L86.4993627,148.708134 L78.3900475,148.708134 L78.5826169,144.67177 L78.4328407,138.680957 L82.5837831,138.680957 L82.3912136,144.24689 L82.4554034,145.755215 L84.4024949,145.755215 L84.4452881,144.67177 L84.2955119,138.680957 L88.4464542,138.680957 L88.2538847,144.24689 L88.3180746,145.733971 L89.6446644,145.733971 Z" id="Литный-20000₽-в-меся" fill="#FFFFFF"></path>
                    </g>
                </g>
            </g>
        </g>
    </g>
</svg>